<svg width="506" height="511" viewBox="0 0 506 511" fill="none" xmlns="http://www.w3.org/2000/svg">
<g clip-path="url(#clip0_1_3270)">
<path d="M491.67 33.52H14.46L11.14 510.47H500.39L491.67 33.52Z" fill="url(#paint0_radial_1_3270)"/>
<path d="M67.7299 148.58C95.5899 99.1299 141.03 63.4899 195.7 48.2199C250.36 32.9499 307.7 39.8799 357.16 67.7399C406.61 95.5999 442.25 141.04 457.52 195.71C472.79 250.37 465.86 307.71 438 357.16C410.14 406.61 364.7 442.25 310.03 457.52C255.37 472.79 198.03 465.86 148.58 438C99.1299 410.14 63.4799 364.7 48.2199 310.03C32.9499 255.37 39.8799 198.03 67.7399 148.57L67.7299 148.58ZM431.52 353.51C458.4 305.79 465.09 250.46 450.36 197.71C435.62 144.96 401.23 101.1 353.51 74.2199C305.79 47.3399 250.46 40.6499 197.7 55.3799C144.95 70.1199 101.09 104.51 74.2099 152.23C47.3299 199.95 40.6399 255.28 55.3699 308.03C70.1099 360.78 104.5 404.64 152.22 431.52C199.94 458.4 255.27 465.09 308.03 450.36C360.78 435.62 404.64 401.23 431.52 353.51Z" fill="url(#paint1_radial_1_3270)"/>
<path d="M32.6 128.78C47.66 102.05 67.11 78.6002 90.41 59.0702C114.72 38.7002 142.37 23.2402 172.59 13.1302C202.66 3.07018 233.92 -1.23982 265.49 0.310184C267.54 0.410184 269.12 2.15018 269.02 4.21018C268.92 6.26018 267.17 7.84018 265.12 7.74018C234.48 6.23018 204.14 10.4202 174.94 20.1902C145.61 30.0002 118.77 45.0002 95.18 64.7802C72.57 83.7302 53.69 106.5 39.07 132.44C25.36 156.78 15.97 182.94 11.15 210.19C6.49999 236.53 6.20999 263.35 10.28 289.91C10.59 291.94 9.19999 293.84 7.16999 294.15C5.13999 294.46 3.23999 293.07 2.92999 291.04C-1.27001 263.68 -0.97001 236.04 3.82999 208.9C8.78999 180.82 18.47 153.87 32.59 128.79L32.6 128.78Z" fill="url(#paint2_radial_1_3270)"/>
<path d="M127.37 468.07C128.38 466.28 130.65 465.65 132.43 466.66C179.45 493.15 232.49 503.31 285.82 496.04C304.16 493.54 322.25 488.96 339.57 482.42C341.49 481.7 343.64 482.67 344.36 484.59C345.08 486.51 344.11 488.65 342.19 489.38C324.34 496.11 305.71 500.83 286.82 503.41C231.87 510.9 177.22 500.43 128.78 473.14C126.99 472.13 126.36 469.86 127.37 468.08V468.07Z" fill="url(#paint3_radial_1_3270)"/>
<path d="M371.89 34.0102C372.9 32.2202 375.17 31.5902 376.95 32.6002C441.47 68.9502 486.68 131.51 500.97 204.24C506.14 230.58 507.11 257.38 503.84 283.91C499.8 316.65 489.47 347.96 473.14 376.95C472.13 378.74 469.86 379.37 468.08 378.36C466.3 377.35 465.66 375.08 466.67 373.3C482.52 345.16 492.55 314.78 496.47 283C499.65 257.25 498.71 231.24 493.69 205.67C479.82 135.07 435.94 74.3502 373.32 39.0702C371.53 38.0602 370.9 35.8002 371.91 34.0102H371.89Z" fill="url(#paint4_radial_1_3270)"/>
<path d="M155.71 43.2901C156.09 42.6201 156.67 42.0701 157.42 41.7301C203.33 21.0201 255.51 15.7501 304.34 26.9001C306.34 27.3601 307.59 29.3501 307.14 31.3501C306.68 33.3501 304.69 34.6001 302.69 34.1501C255.42 23.3601 204.92 28.4601 160.48 48.5101C158.61 49.3501 156.41 48.5201 155.56 46.6501C155.05 45.5301 155.15 44.2901 155.71 43.2901Z" fill="url(#paint5_radial_1_3270)"/>
<path d="M51 139.15C52.01 137.36 54.28 136.73 56.06 137.74C57.85 138.75 58.4799 141.02 57.47 142.8C33.52 185.32 24.17 233.31 30.43 281.57C33.45 304.79 40.03 327.31 49.99 348.5C60.09 369.96 73.4199 389.56 89.6399 406.75C91.0499 408.24 90.9799 410.6 89.4899 412C87.9999 413.41 85.64 413.34 84.23 411.85C67.48 394.09 53.7 373.84 43.27 351.67C32.98 329.79 26.1799 306.53 23.0599 282.54C16.5899 232.68 26.24 183.1 50.99 139.16L51 139.15Z" fill="url(#paint6_radial_1_3270)"/>
<path d="M208.54 475.35C209.3 474.01 210.85 473.22 212.45 473.52C306.52 490.76 401.28 446.32 448.25 362.94C449.26 361.15 451.53 360.52 453.31 361.53C455.1 362.54 455.73 364.81 454.72 366.59C406.19 452.73 308.29 498.65 211.1 480.84C209.08 480.47 207.74 478.53 208.11 476.51C208.19 476.09 208.33 475.7 208.53 475.36L208.54 475.35Z" fill="url(#paint7_radial_1_3270)"/>
<path d="M461.67 167.29C462.07 166.57 462.72 165.98 463.54 165.66C465.45 164.91 467.61 165.85 468.36 167.76C484.85 209.58 488.88 254.85 480.04 298.67C479.64 300.68 477.67 301.98 475.66 301.58C473.65 301.17 472.35 299.21 472.75 297.2C481.31 254.78 477.4 210.96 461.44 170.48C461.01 169.4 461.13 168.23 461.66 167.29H461.67Z" fill="url(#paint8_radial_1_3270)"/>
<path opacity="0.3" d="M379.41 103.36C339.96 102.79 291.27 88.7002 248.7 75.5202C206.16 88.7002 157.5 102.53 118.03 103.09C157.46 102.52 206.1 88.1602 248.62 74.9902L248.7 74.9702L248.78 74.9902C291.33 88.1602 340.01 102.27 379.41 102.83V103.36Z" fill="white"/>
<path d="M387.9 100.19L386.08 233.12L385.97 240.78L385.82 251.6V252.85C385.82 253.27 385.82 253.68 385.8 254.1V254.29C385.79 255.09 385.77 255.88 385.76 256.67C385.75 256.94 385.73 257.19 385.72 257.45C385.72 257.51 385.72 257.55 385.71 257.6C385.71 257.8 385.7 258.01 385.68 258.22C385.68 258.46 385.68 258.72 385.67 258.96V259.18C385.67 259.18 385.67 259.27 385.66 259.33C385.65 259.69 385.62 260.06 385.61 260.43C385.6 260.77 385.58 261.13 385.57 261.49C385.52 262.32 385.48 263.15 385.42 263.98C385.37 264.9 385.31 265.8 385.22 266.71C385.17 267.45 385.11 268.18 385.05 268.9C384.98 269.64 384.93 270.35 384.85 271.08C384.84 271.22 384.83 271.37 384.8 271.51C384.57 273.89 384.27 276.24 383.96 278.57C383.74 280.16 383.5 281.74 383.25 283.31C383.13 284.1 382.99 284.87 382.84 285.66C382.7 286.44 382.56 287.22 382.43 287.99C382 290.32 381.54 292.62 381.02 294.9C380.85 295.65 380.69 296.42 380.5 297.17C380.23 298.29 379.96 299.43 379.68 300.54C379.4 301.66 379.11 302.77 378.81 303.87C378.61 304.61 378.43 305.34 378.22 306.08C378.01 306.81 377.8 307.53 377.6 308.27C376.96 310.42 376.29 312.58 375.6 314.71C375.04 316.41 374.47 318.09 373.88 319.76C373.63 320.49 373.38 321.19 373.12 321.89C372.87 322.62 372.6 323.32 372.33 324.02C372.08 324.72 371.81 325.41 371.54 326.11C371.19 327.04 370.82 327.96 370.47 328.88C369.37 331.62 368.23 334.31 367.05 336.96C366.05 339.2 365.04 341.4 364 343.55L363.06 345.47C362.75 346.12 362.44 346.76 362.12 347.38C362.01 347.64 361.87 347.88 361.75 348.12C361.22 349.16 360.7 350.19 360.15 351.21C359.15 353.15 358.12 355.03 357.08 356.9C355.83 359.16 354.54 361.37 353.26 363.53C351.98 365.7 350.67 367.8 349.38 369.84C348.71 370.86 348.08 371.87 347.44 372.86C347.09 373.36 346.78 373.84 346.46 374.34C346.12 374.84 345.82 375.32 345.48 375.79C345.16 376.27 344.83 376.75 344.5 377.22C343.87 378.18 343.22 379.11 342.58 380.03C341.94 380.95 341.28 381.85 340.65 382.75C340.33 383.21 340.02 383.66 339.68 384.1C339.37 384.51 339.05 384.95 338.74 385.36C336.71 388.1 334.65 390.8 332.53 393.46C331.77 394.43 330.99 395.37 330.22 396.33C328.65 398.22 327.07 400.08 325.49 401.93C324.7 402.85 323.9 403.77 323.09 404.67C321.48 406.48 319.83 408.27 318.18 410.01C317.76 410.47 317.35 410.9 316.94 411.32C316.52 411.75 316.1 412.19 315.68 412.62C314.86 413.47 314.03 414.33 313.19 415.17C311.38 416.99 309.56 418.78 307.71 420.5C307.02 421.18 306.29 421.85 305.58 422.5H305.57C287.88 438.86 269.15 451.27 252.24 457.43L250.8 457.95H250.79L249.34 457.43C232.5 451.3 213.84 438.92 196.19 422.62C186.79 413.96 177.65 404.2 169.24 393.65C167.05 390.93 164.94 388.17 162.85 385.35C148.34 365.64 131.95 337.82 122.83 303.98C119.68 292.25 117.42 279.79 116.41 266.7C116.21 264.19 116.06 261.65 115.96 259.09C115.86 256.59 115.8 254.07 115.8 251.53L115.65 240.77L115.54 233.11L113.71 100.18L118.01 100.12C157.52 99.5303 206.61 84.9003 249.51 71.2203L250.8 70.8003H250.81L252.09 71.2203C295.01 84.9003 344.15 99.5503 383.61 100.12L387.9 100.18V100.19Z" fill="url(#paint9_linear_1_3270)" stroke="black" stroke-miterlimit="10"/>
<path d="M397.96 100.19L396 233.11L395.72 251.59C395.72 252.01 395.72 252.43 395.71 252.84C395.71 253.26 395.71 253.67 395.68 254.09V254.29C395.66 255.35 395.64 256.4 395.6 257.45C395.6 257.51 395.6 257.55 395.59 257.6C395.59 257.81 395.59 258.02 395.58 258.23C395.57 258.47 395.57 258.73 395.54 258.97C395.54 259.02 395.54 259.06 395.53 259.1C395.54 259.18 395.54 259.26 395.53 259.33C395.52 259.69 395.49 260.06 395.47 260.44C395.46 260.78 395.45 261.14 395.43 261.49C395.37 262.32 395.34 263.15 395.27 263.98C395.17 265.63 395.03 267.28 394.88 268.91C394.8 269.64 394.74 270.36 394.66 271.09C394.65 271.23 394.64 271.38 394.6 271.52C394.36 273.9 394.06 276.25 393.7 278.58C393.46 280.17 393.22 281.75 392.94 283.32C392.81 284.1 392.66 284.88 392.5 285.66C392.36 286.45 392.2 287.22 392.06 288C391.6 290.33 391.1 292.63 390.55 294.91C390.1 296.8 389.63 298.69 389.11 300.55C388.81 301.67 388.5 302.78 388.18 303.88C387.97 304.62 387.77 305.35 387.55 306.08C387.32 306.81 387.1 307.54 386.88 308.27C386.21 310.45 385.48 312.59 384.75 314.71C384.15 316.41 383.54 318.09 382.91 319.76C382.64 320.48 382.37 321.19 382.09 321.89C381.83 322.61 381.54 323.32 381.25 324.02C380.97 324.71 380.69 325.41 380.4 326.11C380.02 327.04 379.63 327.96 379.25 328.88C378.07 331.62 376.85 334.32 375.58 336.96C374.5 339.2 373.42 341.4 372.3 343.56L371.3 345.48C370.96 346.12 370.63 346.76 370.28 347.39C370.16 347.64 370.02 347.89 369.88 348.13C369.32 349.17 368.75 350.2 368.17 351.22C367.09 353.15 365.98 355.05 364.87 356.9C363.52 359.17 362.14 361.38 360.77 363.53C359.4 365.7 358 367.8 356.6 369.84C355.89 370.86 355.21 371.86 354.52 372.86C354.15 373.36 353.81 373.84 353.47 374.34C353.11 374.84 352.78 375.32 352.42 375.8C352.07 376.27 351.73 376.75 351.37 377.22C350.69 378.17 350 379.11 349.31 380.03C348.62 380.95 347.92 381.85 347.24 382.74C346.9 383.2 346.56 383.65 346.2 384.09C345.88 384.52 345.53 384.94 345.21 385.36C343.03 388.1 340.81 390.8 338.55 393.45H338.54C337.72 394.41 336.89 395.36 336.06 396.31C334.4 398.2 332.7 400.07 330.98 401.91C330.13 402.83 329.27 403.75 328.4 404.66C326.67 406.47 324.9 408.25 323.13 409.99C322.68 410.45 322.24 410.88 321.8 411.31C321.35 411.74 320.9 412.17 320.45 412.6C319.56 413.46 318.68 414.32 317.77 415.15C315.82 416.98 313.87 418.76 311.89 420.48C311.14 421.15 310.36 421.83 309.61 422.48C309.59 422.48 309.59 422.48 309.59 422.48C290.6 438.84 270.51 451.26 252.35 457.41L250.82 457.93V70.8101L252.18 71.2201C298.26 84.9101 350.98 99.5501 393.35 100.13L397.95 100.19H397.96Z" fill="url(#paint10_linear_1_3270)" stroke="black" stroke-miterlimit="10"/>
<path d="M250.49 75.2402V436.81C207.4 421.57 143.7 360.57 126.32 283.61C123.4 270.73 121.79 257.39 121.79 243.76L119.8 103.1C141.56 102.79 166.24 98.3102 190.41 92.3602C202.68 89.3502 214.83 85.9702 226.4 82.5502C234.79 80.0902 242.86 77.6002 250.48 75.2402H250.49Z" fill="url(#paint11_linear_1_3270)"/>
<path d="M381.21 103.1L379.22 243.76C379.22 256.32 377.85 268.62 375.37 280.54C359 358.94 294.18 421.36 250.49 436.8V75.2402C289.34 87.2702 340.39 102.51 381.21 103.09V103.1Z" fill="url(#paint12_linear_1_3270)"/>
<path d="M250.5 110.61V417.34C228.19 407.36 201.85 384.92 181.71 358.35C168.7 341.19 154 317 145.95 287.77C142.2 274.13 139.9 259.4 139.9 243.76L138.17 129.4C171.77 126.94 212.13 122.1 250.5 110.61Z" fill="url(#paint13_radial_1_3270)"/>
<path d="M362.84 129.4L361.12 243.76C361.12 258.79 358.99 273.01 355.48 286.21C347.54 316.14 332.54 340.88 319.31 358.35C299.17 384.91 272.84 407.35 250.49 417.34V110.61C288.88 122.1 329.23 126.94 362.83 129.4H362.84Z" fill="url(#paint14_linear_1_3270)"/>
<path opacity="0.3" d="M363.37 129.4C363.17 136.27 362.9 143.15 362.75 150.02C362.59 156.89 362.39 163.77 362.28 170.64L361.91 191.26C361.85 198.14 361.75 205.01 361.76 211.89L361.72 232.51L361.66 242.82C361.6 246.28 361.47 249.7 361.38 253.14C361.38 254.86 361.11 256.58 360.98 258.3L360.48 263.46C360.36 265.19 360.02 266.88 359.76 268.59L358.94 273.7C358.71 275.41 358.27 277.08 357.91 278.77L356.79 283.83L356.51 285.09L356.15 286.36L355.44 288.84L354.01 293.79L353.3 296.27L352.43 298.71L350.67 303.59C349.57 306.88 348.14 310.02 346.79 313.2C346.09 314.78 345.47 316.39 344.72 317.94L342.43 322.58C341.66 324.12 340.92 325.68 340.12 327.21L337.61 331.74C336.77 333.24 335.96 334.77 335.08 336.25L332.37 340.66C331.45 342.12 330.6 343.62 329.62 345.04L326.73 349.33C322.84 355.03 318.68 360.54 314.28 365.84C305.49 376.48 295.75 386.3 285.21 395.2C279.94 399.64 274.44 403.81 268.69 407.62C262.94 411.42 256.94 414.87 250.63 417.69L250.47 417.76L250.32 417.69C244.04 414.82 238.08 411.31 232.37 407.46C226.66 403.6 221.21 399.39 215.99 394.91C210.76 390.43 205.77 385.69 200.95 380.79C196.13 375.89 191.56 370.74 187.2 365.42C182.84 360.1 178.72 354.58 174.88 348.89L172 344.61C171.05 343.18 170.18 341.69 169.27 340.24L166.55 335.86L164.02 331.37C163.19 329.87 162.32 328.39 161.51 326.87L159.2 322.26C158.44 320.72 157.64 319.2 156.91 317.64L154.84 312.92L152.77 308.2L150.96 303.37L149.16 298.54C148.57 296.93 148.12 295.26 147.6 293.62C146.62 290.33 145.49 287.07 144.78 283.7C144.02 280.35 143.06 277.04 142.56 273.63C141.24 266.87 140.46 260.02 139.99 253.16C139.87 249.72 139.71 246.28 139.62 242.85L139.44 232.54L139.06 211.92L137.54 129.44V128.87L138.1 128.82L145.2 128.24C147.57 128.04 149.94 127.88 152.3 127.64L159.39 126.95C161.76 126.71 164.12 126.51 166.48 126.21L173.55 125.37C175.91 125.09 178.27 124.84 180.62 124.48L187.68 123.48C190.03 123.14 192.39 122.84 194.72 122.42L201.75 121.23C204.09 120.82 206.44 120.49 208.77 119.98L215.75 118.58C218.07 118.1 220.41 117.69 222.72 117.14L229.66 115.53C231.97 114.98 234.29 114.48 236.59 113.89L250.33 110.13L250.49 110.09L250.63 110.13L264.29 114.19C266.58 114.81 268.9 115.34 271.2 115.93L278.12 117.64C280.42 118.24 282.77 118.63 285.09 119.13L292.08 120.55C294.4 121.06 296.76 121.4 299.1 121.82L306.13 123.01C308.47 123.43 310.83 123.72 313.19 124.05L320.26 125.03C322.61 125.38 324.98 125.62 327.34 125.9L334.43 126.68C336.79 126.96 339.16 127.13 341.53 127.35L348.63 127.97C351 128.17 353.37 128.29 355.75 128.46L363.37 128.93V129.43V129.4ZM362.3 129.87L355.69 129.21C353.32 128.97 350.95 128.77 348.59 128.5L341.5 127.73C339.14 127.46 336.77 127.25 334.41 126.93L327.33 126.03C324.97 125.74 322.6 125.48 320.25 125.12L313.19 124.1C310.84 123.75 308.48 123.44 306.14 123.02L299.11 121.84C296.77 121.44 294.41 121.11 292.08 120.62L285.08 119.25C282.75 118.77 280.41 118.37 278.09 117.84L271.12 116.28C268.8 115.75 266.47 115.27 264.16 114.69L250.32 111.14H250.62L236.86 114.99C234.56 115.6 232.23 116.11 229.92 116.68L222.97 118.34C220.66 118.91 218.31 119.3 215.98 119.79L208.98 121.19C206.65 121.69 204.29 122.02 201.95 122.44L194.91 123.63C192.57 124.05 190.21 124.35 187.85 124.69L180.78 125.69C178.43 126.05 176.06 126.3 173.7 126.58L166.61 127.42C164.25 127.72 161.88 127.92 159.51 128.16L152.41 128.85C150.04 129.09 147.67 129.25 145.3 129.45L138.19 130.02L138.76 129.4L139.73 211.89L139.97 232.51L140.09 242.82C140.17 246.26 140.31 249.68 140.41 253.12C140.85 259.97 141.6 266.8 142.88 273.55C143.35 276.95 144.3 280.27 145.05 283.62C145.75 286.99 146.86 290.24 147.82 293.54C148.33 295.18 148.77 296.84 149.35 298.46L151.13 303.3L152.91 308.13L154.96 312.86L157.01 317.59C157.73 319.15 158.53 320.67 159.28 322.22L161.57 326.84C162.37 328.37 163.23 329.85 164.06 331.36L166.57 335.86L169.27 340.25C170.19 341.7 171.06 343.18 172.01 344.61L174.9 348.88C178.77 354.56 182.91 360.06 187.28 365.36C196.01 375.98 205.7 385.81 216.2 394.65C221.46 399.08 226.94 403.23 232.66 407.01C238.38 410.79 244.35 414.22 250.6 417.01H250.29C256.52 414.17 262.46 410.69 268.14 406.86C273.83 403.03 279.26 398.83 284.47 394.37C294.87 385.44 304.49 375.58 313.13 364.94C317.47 359.63 321.54 354.11 325.38 348.44L328.25 344.18C329.22 342.77 330.07 341.28 330.99 339.83L333.69 335.45C334.56 333.98 335.36 332.46 336.2 330.97L338.69 326.48C339.49 324.97 340.22 323.42 340.98 321.88L343.26 317.28C344.01 315.74 344.63 314.14 345.32 312.58C346.66 309.43 348.08 306.31 349.17 303.07L350.92 298.25L351.8 295.84L352.54 293.37L354.01 288.43L354.75 285.95L355.11 284.74L355.4 283.49L356.56 278.49C356.93 276.82 357.38 275.16 357.62 273.47L358.48 268.41C358.75 266.72 359.1 265.04 359.23 263.33L359.77 258.23C359.92 256.53 360.2 254.84 360.21 253.12L360.59 242.82L360.84 232.51L361.43 211.89C361.65 205.02 361.75 198.14 361.89 191.27L362.14 170.65C362.24 163.78 362.24 156.9 362.29 150.03C362.35 143.32 362.29 136.6 362.29 129.89L362.3 129.87Z" fill="white"/>
<path d="M362.84 129.4L355.97 135.64H145.04L138.16 129.4C150.71 128.48 164.18 127.23 178.16 125.42C188.95 124.03 200.03 122.31 211.19 120.16C224.29 117.62 237.5 114.5 250.49 110.61C288.88 122.1 329.24 126.94 362.84 129.4Z" fill="url(#paint15_linear_1_3270)"/>
<path d="M250.49 124.42V409.85C229.62 399.71 205.61 378.67 187.09 354.26C177.08 341.05 166.03 323.55 158.02 302.75C153.41 290.79 149.8 277.75 147.98 263.82C147.22 257.9 146.75 251.82 146.68 245.59C146.67 244.98 146.67 244.37 146.67 243.76L145.04 135.64C177.49 132.72 250.49 124.43 250.49 124.43V124.42Z" fill="url(#paint16_radial_1_3270)"/>
<path d="M355.94 135.64L354.31 243.65C354.31 244.16 354.31 244.66 354.29 245.15C354.23 251.56 353.77 257.82 352.97 263.9C351.49 275.21 348.84 285.92 345.44 295.93C337.34 319.75 324.98 339.63 313.89 354.25C295.37 378.67 271.36 399.7 250.49 409.84V124.42C250.49 124.42 323.51 132.71 355.94 135.63V135.64Z" fill="url(#paint17_radial_1_3270)"/>
<path opacity="0.5" d="M381.72 103.11L380.23 199.36L379.49 247.48C379.29 255.52 378.58 263.54 377.3 271.47C376.05 279.41 374.25 287.25 372.02 294.97C369.76 302.68 367.08 310.26 363.95 317.66C360.85 325.07 357.3 332.29 353.43 339.32C349.55 346.35 345.3 353.18 340.76 359.79C336.2 366.4 331.33 372.79 326.18 378.94C321.01 385.08 315.57 391 309.84 396.61C304.13 402.24 298.11 407.57 291.84 412.58C285.55 417.56 278.99 422.21 272.11 426.35C265.24 430.47 258.04 434.11 250.48 436.8C242.92 434.1 235.73 430.45 228.87 426.31C222 422.17 215.45 417.51 209.17 412.52C202.91 407.51 196.91 402.17 191.2 396.54C185.47 390.92 180.08 384.97 174.87 378.87C169.71 372.73 164.72 366.44 160.06 359.89C155.38 353.36 151.08 346.55 147.15 339.53C143.27 332.48 139.72 325.25 136.62 317.83C133.5 310.42 130.77 302.82 128.57 295.08C126.38 287.34 124.63 279.47 123.42 271.51C122.18 263.56 121.53 255.52 121.46 247.48C121.48 239.45 121.56 231.43 121.46 223.41C121.43 215.39 121.17 207.37 120.87 199.35C120.72 195.34 120.56 191.33 120.49 187.32C120.37 183.31 120.34 179.3 120.33 175.29C120.28 167.27 119.8 103.09 119.8 103.09C119.66 111.11 121.09 167.25 121.27 175.27C121.37 179.28 121.46 183.29 121.45 187.3C121.5 191.31 121.45 195.32 121.42 199.33C121.35 207.36 121.31 215.38 121.51 223.4C121.63 231.42 121.96 239.44 122.18 247.45C122.36 251.45 122.57 255.45 122.99 259.43C123.37 263.41 123.88 267.38 124.52 271.33C125.79 279.22 127.59 287.03 129.84 294.7C132.13 302.36 134.75 309.92 137.85 317.29C140.92 324.67 144.43 331.87 148.27 338.89C152.06 345.93 156.23 352.78 160.61 359.48C165.04 366.16 169.76 372.65 174.89 378.82C179.99 385.02 185.45 390.9 191.16 396.54C196.87 402.18 202.87 407.51 209.13 412.52C215.41 417.51 221.96 422.17 228.83 426.31C235.7 430.45 242.89 434.1 250.44 436.8C258 434.09 265.18 430.43 272.04 426.29C278.9 422.14 285.44 417.47 291.72 412.47C297.97 407.45 303.97 402.11 309.67 396.47C315.38 390.84 320.79 384.91 325.94 378.77C331.07 372.61 335.92 366.22 340.45 359.6C344.97 352.98 349.19 346.15 353.04 339.12C356.89 332.09 360.41 324.88 363.48 317.48C366.58 310.09 369.24 302.52 371.47 294.83C373.68 287.13 375.44 279.3 376.67 271.39C377.92 263.48 378.61 255.48 378.78 247.48L379.39 199.35L380.62 103.1H381.68L381.72 103.11Z" fill="white"/>
<path style="mix-blend-mode:multiply" opacity="0.3" d="M345.44 295.93C337.34 319.75 324.98 339.63 313.89 354.25C295.36 378.67 271.36 399.7 250.49 409.84C229.62 399.7 205.62 378.66 187.09 354.25C177.08 341.04 166.03 323.54 158.02 302.74C179.15 312.36 211.53 318.03 250.46 319.74H250.49C285.79 317.82 317.1 308.38 345.44 295.92V295.93Z" fill="url(#paint18_linear_1_3270)"/>
<path style="mix-blend-mode:multiply" opacity="0.7" d="M375.48 279.93C359.34 358.62 294.29 421.32 250.49 436.81C207.25 421.51 143.27 360.15 126.15 282.84C131.73 284.12 138.3 285.51 145.7 286.9C153.69 316.52 168.56 341.02 181.69 358.35C201.83 384.91 228.17 407.36 250.48 417.34C272.83 407.36 299.17 384.92 319.31 358.35C332.71 340.65 347.94 315.47 355.8 285.01C362.3 283.55 368.76 281.87 375.48 279.92V279.93Z" fill="url(#paint19_linear_1_3270)"/>
<path d="M250.49 75.2402V436.81C207.4 421.57 143.7 360.57 126.32 283.61C123.4 270.73 121.79 257.39 121.79 243.76L119.8 103.1C141.56 102.79 166.24 98.3102 190.41 92.3602C202.68 89.3502 214.83 85.9702 226.4 82.5502C234.79 80.0902 242.86 77.6002 250.48 75.2402H250.49Z" fill="url(#paint20_linear_1_3270)" stroke="black" stroke-linecap="round" stroke-linejoin="round"/>
<path d="M381.21 103.1L379.22 243.76C379.22 256.32 377.85 268.62 375.37 280.54C359 358.94 294.18 421.36 250.49 436.8V75.2402C289.34 87.2702 340.39 102.51 381.21 103.09V103.1Z" fill="url(#paint21_linear_1_3270)" stroke="black" stroke-linecap="round" stroke-linejoin="round"/>
<path d="M249.67 418.06C227.36 408.08 200.06 384.91 179.92 358.35C166.91 341.19 152.21 317 144.16 287.77C140.41 274.13 138.11 259.4 138.11 243.76L136.38 129.4C169.98 126.94 211.21 121.89 249.58 110.4L249.66 418.06H249.67Z" fill="url(#paint22_linear_1_3270)" stroke="black" stroke-miterlimit="10"/>
<path d="M365.01 129.56L363.29 243.92C363.29 258.95 361.16 273.17 357.65 286.37C349.71 316.3 334.71 341.04 321.48 358.51C301.34 385.07 273.67 408.07 251.32 418.05V110.31C251.32 110.31 275.7 117.79 303.21 122.78C325.55 126.84 349.95 128.45 365.01 129.55V129.56Z" fill="url(#paint23_linear_1_3270)" stroke="black" stroke-miterlimit="10"/>
<path d="M363.74 129.52L356.83 135.8H144.49L137.57 129.52C150.2 128.6 163.77 127.34 177.84 125.52C188.7 124.13 199.85 122.39 211.08 120.23C224.27 117.67 237.56 114.53 250.64 110.61C289.29 122.18 329.91 127.04 363.74 129.52Z" fill="url(#paint24_linear_1_3270)" stroke="black" stroke-miterlimit="10"/>
<path d="M250.49 409.85C249.1 316.14 249.1 218.14 250.49 124.42C249.66 124.42 251.32 124.42 250.49 124.42C251.87 218.13 251.87 316.13 250.49 409.85Z" fill="#6E92BC"/>
<path d="M250.49 124.42C250.49 124.42 177.48 132.71 145.04 135.63L146.67 243.75C146.67 244.36 146.67 244.97 146.68 245.58C146.75 251.81 147.22 257.89 147.98 263.81C149.8 277.74 153.4 290.78 158.02 302.74C166.03 323.54 177.08 341.04 187.09 354.25C205.62 378.67 229.62 399.7 250.49 409.84C271.36 399.7 295.37 378.66 313.89 354.25C324.98 339.63 337.33 319.74 345.44 295.93C348.85 285.92 351.49 275.22 352.97 263.9C353.78 257.82 354.23 251.56 354.29 245.15C354.31 244.65 354.31 244.16 354.31 243.65L355.94 135.64C323.5 132.72 250.49 124.43 250.49 124.43V124.42Z" fill="url(#paint25_linear_1_3270)" stroke="black" stroke-miterlimit="10"/>
<path d="M310.21 306.88H200.43L194.13 298.95L302.27 219.26L310.21 227.19V306.88Z" fill="url(#paint26_linear_1_3270)" stroke="black" stroke-linecap="round" stroke-linejoin="round"/>
<path d="M294.61 208.95V255.92H281.34V208.95C281.34 191.09 267.77 176.56 251.08 176.56C234.39 176.56 220.82 191.08 220.82 208.95V255.92H207.55V208.95C207.55 183.37 227.08 162.57 251.08 162.57C275.08 162.57 294.61 183.37 294.61 208.95Z" fill="url(#paint27_radial_1_3270)" stroke="black" stroke-linecap="round" stroke-linejoin="round"/>
<path d="M194.13 298.95H248.2V219.26H194.13V298.95Z" fill="url(#paint28_linear_1_3270)" stroke="black" stroke-linecap="round" stroke-linejoin="round"/>
<path d="M302.27 219.26H248.2V298.95H302.27V219.26Z" fill="url(#paint29_linear_1_3270)" stroke="black" stroke-linecap="round" stroke-linejoin="round"/>
<path d="M253.74 255.971L258.76 279.791H237.45L242.47 255.971C239.47 254.071 237.45 250.761 237.45 246.971C237.45 241.031 242.23 236.311 248.11 236.311C253.99 236.311 258.77 241.031 258.77 246.971C258.77 250.771 256.75 254.071 253.75 255.971H253.74Z" fill="url(#paint30_radial_1_3270)" stroke="black" stroke-linecap="round" stroke-linejoin="round"/>
</g>
<defs>
<radialGradient id="paint0_radial_1_3270" cx="0" cy="0" r="1" gradientUnits="userSpaceOnUse" gradientTransform="translate(255.765 271.995) rotate(90) scale(238.475 244.625)">
<stop stop-color="#6DFFEC"/>
<stop offset="1" stop-color="#6DFFEC" stop-opacity="0"/>
</radialGradient>
<radialGradient id="paint1_radial_1_3270" cx="0" cy="0" r="1" gradientUnits="userSpaceOnUse" gradientTransform="translate(252.87 252.87) rotate(89.0685) scale(317.06 317.06)">
<stop offset="0.157502" stop-color="#00C4D9"/>
<stop offset="1" stop-color="#00C4D9" stop-opacity="0"/>
</radialGradient>
<radialGradient id="paint2_radial_1_3270" cx="0" cy="0" r="1" gradientUnits="userSpaceOnUse" gradientTransform="translate(134.507 147.098) rotate(89.1482) scale(219.386 200.635)">
<stop offset="0.157502" stop-color="#00C4D9"/>
<stop offset="1" stop-color="#00C4D9" stop-opacity="0"/>
</radialGradient>
<radialGradient id="paint3_radial_1_3270" cx="0" cy="0" r="1" gradientUnits="userSpaceOnUse" gradientTransform="translate(235.743 485.971) rotate(84.8901) scale(29.6339 161.731)">
<stop offset="0.157502" stop-color="#00C4D9"/>
<stop offset="1" stop-color="#00C4D9" stop-opacity="0"/>
</radialGradient>
<radialGradient id="paint4_radial_1_3270" cx="0" cy="0" r="1" gradientUnits="userSpaceOnUse" gradientTransform="translate(438.581 205.48) rotate(89.6392) scale(258.537 100.168)">
<stop offset="0.157502" stop-color="#00C4D9"/>
<stop offset="1" stop-color="#00C4D9" stop-opacity="0"/>
</radialGradient>
<radialGradient id="paint5_radial_1_3270" cx="0" cy="0" r="1" gradientUnits="userSpaceOnUse" gradientTransform="translate(231.23 35.0102) rotate(84.8933) scale(20.7031 112.92)">
<stop offset="0.157502" stop-color="#00C4D9"/>
<stop offset="1" stop-color="#00C4D9" stop-opacity="0"/>
</radialGradient>
<radialGradient id="paint6_radial_1_3270" cx="0" cy="0" r="1" gradientUnits="userSpaceOnUse" gradientTransform="translate(55.879 275.137) rotate(89.765) scale(205.617 51.8728)">
<stop offset="0.157502" stop-color="#00C4D9"/>
<stop offset="1" stop-color="#00C4D9" stop-opacity="0"/>
</radialGradient>
<radialGradient id="paint7_radial_1_3270" cx="0" cy="0" r="1" gradientUnits="userSpaceOnUse" gradientTransform="translate(331.625 422.844) rotate(88.1377) scale(92.2037 184.24)">
<stop offset="0.157502" stop-color="#00C4D9"/>
<stop offset="1" stop-color="#00C4D9" stop-opacity="0"/>
</radialGradient>
<radialGradient id="paint8_radial_1_3270" cx="0" cy="0" r="1" gradientUnits="userSpaceOnUse" gradientTransform="translate(472.895 233.527) rotate(89.8398) scale(101.595 17.4764)">
<stop offset="0.157502" stop-color="#00C4D9"/>
<stop offset="1" stop-color="#00C4D9" stop-opacity="0"/>
</radialGradient>
<linearGradient id="paint9_linear_1_3270" x1="250.81" y1="34.5303" x2="250.81" y2="452.14" gradientUnits="userSpaceOnUse">
<stop offset="0.09" stop-color="#22004D"/>
<stop offset="0.11" stop-color="#260056"/>
<stop offset="0.21" stop-color="#460091"/>
<stop offset="0.3" stop-color="#5F00C0"/>
<stop offset="0.38" stop-color="#7100E2"/>
<stop offset="0.91" stop-color="#94ECE5"/>
</linearGradient>
<linearGradient id="paint10_linear_1_3270" x1="324.39" y1="448.46" x2="324.39" y2="-1.60993" gradientUnits="userSpaceOnUse">
<stop offset="0.09" stop-color="#93EBE4"/>
<stop offset="0.56" stop-color="#7900F2"/>
<stop offset="0.68" stop-color="#6700D0"/>
<stop offset="0.85" stop-color="#4A0099"/>
<stop offset="0.91" stop-color="#400086"/>
</linearGradient>
<linearGradient id="paint11_linear_1_3270" x1="116.16" y1="295.58" x2="282.77" y2="233.69" gradientUnits="userSpaceOnUse">
<stop stop-color="#9FA7B5"/>
<stop offset="0.11" stop-color="#959DAA"/>
<stop offset="0.41" stop-color="#808792"/>
<stop offset="0.74" stop-color="#8C939F"/>
<stop offset="1" stop-color="#99A0AE"/>
</linearGradient>
<linearGradient id="paint12_linear_1_3270" x1="519.33" y1="248.54" x2="184.48" y2="257.86" gradientUnits="userSpaceOnUse">
<stop stop-color="white"/>
<stop offset="0.45" stop-color="#878E9A"/>
<stop offset="1" stop-color="#717680"/>
</linearGradient>
<radialGradient id="paint13_radial_1_3270" cx="0" cy="0" r="1" gradientUnits="userSpaceOnUse" gradientTransform="translate(257.813 416.978) scale(316.597 316.597)">
<stop stop-color="#878E9A"/>
<stop offset="1" stop-color="#767B85"/>
</radialGradient>
<linearGradient id="paint14_linear_1_3270" x1="306.67" y1="410.98" x2="306.67" y2="104.88" gradientUnits="userSpaceOnUse">
<stop stop-color="#7F848F"/>
<stop offset="0.51" stop-color="#787E88"/>
<stop offset="1" stop-color="#878E9A"/>
</linearGradient>
<linearGradient id="paint15_linear_1_3270" x1="132.38" y1="123.12" x2="444.11" y2="123.12" gradientUnits="userSpaceOnUse">
<stop stop-color="#99A1AE"/>
<stop offset="0.3" stop-color="#888F9B"/>
<stop offset="0.72" stop-color="#757C86"/>
<stop offset="1" stop-color="#6F757F"/>
</linearGradient>
<radialGradient id="paint16_radial_1_3270" cx="0" cy="0" r="1" gradientUnits="userSpaceOnUse" gradientTransform="translate(263.985 186.545) scale(201.885 201.885)">
<stop stop-color="white"/>
<stop offset="1" stop-color="#787E87"/>
</radialGradient>
<radialGradient id="paint17_radial_1_3270" cx="0" cy="0" r="1" gradientUnits="userSpaceOnUse" gradientTransform="translate(238.011 336.861) scale(206.362 206.362)">
<stop stop-color="#636770"/>
<stop offset="1" stop-color="#828893"/>
</radialGradient>
<linearGradient id="paint18_linear_1_3270" x1="251.73" y1="359.83" x2="251.73" y2="271.83" gradientUnits="userSpaceOnUse">
<stop stop-color="white"/>
<stop offset="1" stop-color="#51555C"/>
</linearGradient>
<linearGradient id="paint19_linear_1_3270" x1="250.82" y1="363.37" x2="250.82" y2="257.44" gradientUnits="userSpaceOnUse">
<stop stop-color="white"/>
<stop offset="1" stop-color="#4A4E54"/>
</linearGradient>
<linearGradient id="paint20_linear_1_3270" x1="119.81" y1="256.02" x2="250.49" y2="256.02" gradientUnits="userSpaceOnUse">
<stop offset="0.09" stop-color="#818BFF"/>
<stop offset="0.15" stop-color="#806CFF"/>
<stop offset="0.26" stop-color="#803EFF"/>
<stop offset="0.36" stop-color="#801CFF"/>
<stop offset="0.44" stop-color="#8007FF"/>
<stop offset="0.49" stop-color="#8000FF"/>
<stop offset="0.54" stop-color="#810CFF"/>
<stop offset="0.63" stop-color="#852EFF"/>
<stop offset="0.76" stop-color="#8C66FF"/>
<stop offset="0.91" stop-color="#95AFFF"/>
</linearGradient>
<linearGradient id="paint21_linear_1_3270" x1="519.33" y1="248.54" x2="184.48" y2="257.86" gradientUnits="userSpaceOnUse">
<stop offset="0.45" stop-color="#818BFF"/>
<stop offset="0.47" stop-color="#806CFF"/>
<stop offset="0.51" stop-color="#803EFF"/>
<stop offset="0.54" stop-color="#801CFF"/>
<stop offset="0.56" stop-color="#8007FF"/>
<stop offset="0.58" stop-color="#8000FF"/>
<stop offset="0.61" stop-color="#810CFF"/>
<stop offset="0.65" stop-color="#852EFF"/>
<stop offset="0.72" stop-color="#8C66FF"/>
<stop offset="0.79" stop-color="#95AFFF"/>
</linearGradient>
<linearGradient id="paint22_linear_1_3270" x1="123.19" y1="260.05" x2="219.54" y2="263.23" gradientUnits="userSpaceOnUse">
<stop offset="0.09" stop-color="#818BFF"/>
<stop offset="0.15" stop-color="#806CFF"/>
<stop offset="0.26" stop-color="#803EFF"/>
<stop offset="0.36" stop-color="#801CFF"/>
<stop offset="0.44" stop-color="#8007FF"/>
<stop offset="0.49" stop-color="#8000FF"/>
<stop offset="0.56" stop-color="#7900F2"/>
<stop offset="0.68" stop-color="#6700D0"/>
<stop offset="0.85" stop-color="#4A0099"/>
<stop offset="0.91" stop-color="#400086"/>
</linearGradient>
<linearGradient id="paint23_linear_1_3270" x1="251.33" y1="264.19" x2="365.01" y2="264.19" gradientUnits="userSpaceOnUse">
<stop offset="0.09" stop-color="#818BFF"/>
<stop offset="0.15" stop-color="#806CFF"/>
<stop offset="0.26" stop-color="#803EFF"/>
<stop offset="0.36" stop-color="#801CFF"/>
<stop offset="0.44" stop-color="#8007FF"/>
<stop offset="0.49" stop-color="#8000FF"/>
<stop offset="0.56" stop-color="#7900F2"/>
<stop offset="0.68" stop-color="#6700D0"/>
<stop offset="0.85" stop-color="#4A0099"/>
<stop offset="0.91" stop-color="#400086"/>
</linearGradient>
<linearGradient id="paint24_linear_1_3270" x1="453.66" y1="92.0304" x2="120.31" y2="157.63" gradientUnits="userSpaceOnUse">
<stop offset="0.45" stop-color="#8000FF"/>
<stop offset="0.51" stop-color="#7900F2"/>
<stop offset="0.62" stop-color="#6700D0"/>
<stop offset="0.76" stop-color="#4A0099"/>
<stop offset="0.81" stop-color="#400086"/>
</linearGradient>
<linearGradient id="paint25_linear_1_3270" x1="144.993" y1="225" x2="355.993" y2="224" gradientUnits="userSpaceOnUse">
<stop stop-color="#00E3F6"/>
<stop offset="0.180607" stop-color="#5A43FF"/>
<stop offset="0.479167" stop-color="#00E3F6"/>
<stop offset="0.84401" stop-color="#5A43FF"/>
<stop offset="0.957864" stop-color="#00E3F6"/>
</linearGradient>
<linearGradient id="paint26_linear_1_3270" x1="213.493" y1="297" x2="304.493" y2="236.5" gradientUnits="userSpaceOnUse">
<stop stop-color="#1448F3"/>
<stop offset="0.908876" stop-color="#DF14F5"/>
</linearGradient>
<radialGradient id="paint27_radial_1_3270" cx="0" cy="0" r="1" gradientUnits="userSpaceOnUse" gradientTransform="translate(250.993 206.001) rotate(89.9004) scale(49.9194 46.5558)">
<stop stop-color="#543CFF"/>
<stop offset="1" stop-color="#91EAFF"/>
</radialGradient>
<linearGradient id="paint28_linear_1_3270" x1="189.493" y1="267.5" x2="257.993" y2="266" gradientUnits="userSpaceOnUse">
<stop stop-color="#FF8F2A"/>
<stop offset="1" stop-color="#FFF091"/>
</linearGradient>
<linearGradient id="paint29_linear_1_3270" x1="298.993" y1="291.5" x2="245.493" y2="292.5" gradientUnits="userSpaceOnUse">
<stop stop-color="#FF8F2A"/>
<stop offset="1" stop-color="#FFF091"/>
</linearGradient>
<radialGradient id="paint30_radial_1_3270" cx="0" cy="0" r="1" gradientUnits="userSpaceOnUse" gradientTransform="translate(248.11 258.051) rotate(90) scale(21.74 10.66)">
<stop stop-color="#569AFF"/>
<stop offset="1" stop-color="#DDF7FF"/>
</radialGradient>
<clipPath id="clip0_1_3270">
<rect width="505.73" height="510.47" fill="white"/>
</clipPath>
</defs>
</svg>
